<svg xmlns="http://www.w3.org/2000/svg" width="80" height="80" viewBox="0 0 80 80">
    <g fill="none" fill-rule="evenodd">
        <path d="M0 0h80v80H0z"/>
        <path fill="#76A340" d="M80 40c0 22.092-17.908 40-40 40S0 62.092 0 40 17.908 0 40 0s40 17.908 40 40"/>
        <path fill="#FEFEFE" d="M60.295 42.13c.215-.335.324-.617.324-.847 0-.3-.118-.532-.351-.7-.234-.169-.567-.252-.999-.252-.466 0-.984.123-1.55.37a6.633 6.633 0 0 0-1.633 1.032l-1.134-2.09c1.601-1.112 3.193-1.668 4.776-1.668 1.17 0 2.122.27 2.861.807.736.54 1.106 1.24 1.106 2.105 0 1.076-.737 2.293-2.212 3.652l-2.456 2.355h5.018v2.224h-8.743v-1.854l4.184-4.154a5.73 5.73 0 0 0 .81-.98m-20.402-7.397a5.763 5.763 0 0 0-2.131 2.13 5.801 5.801 0 0 0-.784 2.965c0 1.094.266 2.09.797 2.99.53.9 1.24 1.615 2.132 2.144a5.58 5.58 0 0 0 2.9.794c1.043 0 2.002-.26 2.874-.78a5.719 5.719 0 0 0 2.078-2.145c.513-.908.77-1.909.77-3.003a5.884 5.884 0 0 0-.77-2.965 5.76 5.76 0 0 0-2.078-2.13 5.51 5.51 0 0 0-2.874-.78c-1.042 0-2.014.26-2.914.78m8.015-3.19c1.548.83 2.766 1.972 3.656 3.428.89 1.456 1.336 3.075 1.336 4.857s-.445 3.406-1.336 4.87c-.89 1.464-2.108 2.616-3.656 3.453-1.548.839-3.266 1.257-5.153 1.257-1.89 0-3.61-.418-5.157-1.257-1.546-.837-2.764-1.984-3.655-3.44-.89-1.457-1.336-3.083-1.336-4.883 0-1.782.446-3.401 1.336-4.857.89-1.456 2.105-2.597 3.644-3.427 1.538-.829 3.26-1.244 5.168-1.244 1.887 0 3.605.415 5.153 1.244M26.982 34.6c-.872-.433-1.75-.649-2.63-.649a5.695 5.695 0 0 0-2.915.768 5.552 5.552 0 0 0-2.078 2.09c-.504.883-.756 1.862-.756 2.938 0 1.077.252 2.061.756 2.951a5.617 5.617 0 0 0 2.078 2.118c.88.52 1.852.78 2.915.78.844 0 1.704-.198 2.576-.596a8.101 8.101 0 0 0 2.335-1.6l2.51 2.673a11.372 11.372 0 0 1-3.55 2.435c-1.358.6-2.72.9-4.088.9-1.853 0-3.535-.42-5.046-1.258a9.276 9.276 0 0 1-3.562-3.453c-.864-1.464-1.295-3.097-1.295-4.897 0-1.782.44-3.396 1.322-4.843.882-1.447 2.092-2.584 3.63-3.414 1.538-.829 3.242-1.244 5.113-1.244 1.368 0 2.717.278 4.048.834 1.331.555 2.465 1.31 3.4 2.263l-2.482 2.99a7.157 7.157 0 0 0-2.28-1.786"/>
    </g>
</svg>
