<svg xmlns="http://www.w3.org/2000/svg" xmlns:xlink="http://www.w3.org/1999/xlink" width="80" height="80" viewBox="0 0 80 80">
    <defs>
        <path id="a" d="M80 40c0 22.092-17.908 40-40 40C17.91 80 0 62.092 0 40S17.909 0 40 0c22.092 0 40 17.908 40 40"/>
    </defs>
    <g fill="none" fill-rule="evenodd">
        <path d="M0 0h80v80H0z"/>
        <mask id="b" fill="#fff">
            <use xlink:href="#a"/>
        </mask>
        <use fill="#76A340" xlink:href="#a"/>
        <path fill="#FFF" d="M37.665 35.477c1 .554 2.542 1.13 4.627 1.726 2.088.597 3.804 1.193 5.15 1.79 1.348.596 2.498 1.492 3.454 2.685.957 1.193 1.435 2.77 1.435 4.73 0 2.5-.862 4.533-2.586 6.094-1.724 1.563-4.005 2.515-6.843 2.856v6.18h-4.998v-6.18a22.08 22.08 0 0 1-5.909-1.577c-1.884-.795-3.55-1.804-4.997-3.026l2.738-5.497c1.535 1.363 3.302 2.457 5.3 3.281 2 .825 3.824 1.236 5.475 1.236 1.42 0 2.528-.256 3.324-.767.797-.511 1.196-1.25 1.196-2.217 0-.766-.269-1.398-.804-1.896-.536-.497-1.217-.901-2.042-1.214-.826-.313-1.963-.667-3.412-1.066-2.085-.567-3.787-1.136-5.106-1.704-1.317-.568-2.455-1.435-3.41-2.6-.957-1.165-1.434-2.713-1.434-4.645 0-2.33.818-4.268 2.455-5.818 1.636-1.548 3.846-2.52 6.626-2.919v-5.796h4.998v5.753c1.738.2 3.403.57 4.997 1.109 1.593.54 3.012 1.221 4.259 2.045l-2.651 5.583a23.3 23.3 0 0 0-4.976-2.238c-1.753-.554-3.253-.83-4.497-.83-1.189 0-2.13.213-2.825.639-.695.426-1.043 1.051-1.043 1.875 0 1.052.5 1.854 1.499 2.408" mask="url(#b)"/>
    </g>
</svg>
