<svg xmlns="http://www.w3.org/2000/svg" width="80" height="80" viewBox="0 0 80 80">
    <g fill="none" fill-rule="evenodd">
        <path d="M0 0h80v80H0z"/>
        <path fill="#76A340" d="M80 40c0 22.092-17.908 40-40 40S0 62.092 0 40 17.908 0 40 0s40 17.908 40 40"/>
        <path fill="#FEFEFE" d="M47.133 31.516h7.552V24.11h-7.552v7.407zm-22.155 0h7.553V24.11h-7.553v7.407zm7.202 20.34c-2.279-1.18-4.055-2.81-5.311-4.884-1.263-2.075-1.891-4.392-1.891-6.96v-3.184h-7.552v3.303c0 4.144.948 7.858 2.85 11.134 1.895 3.278 4.555 5.846 7.97 7.7 3.415 1.86 7.275 2.784 11.585 2.784 4.311 0 8.17-.924 11.586-2.784 3.414-1.854 6.076-4.422 7.971-7.7 1.902-3.276 2.85-6.99 2.85-11.134v-3.303h-7.553v3.184c0 2.568-.629 4.885-1.891 6.96-1.257 2.075-3.032 3.703-5.31 4.884-2.271 1.178-4.82 1.769-7.653 1.777-2.832-.008-5.38-.6-7.651-1.777z"/>
    </g>
</svg>
