<svg xmlns="http://www.w3.org/2000/svg" width="80" height="80" viewBox="0 0 80 80">
    <path fill="#77A300" fill-rule="nonzero" d="M26.954 43.04h6v2.95a7.03 7.03 0 0 0 14.06 0v-2.95h6v2.95c0 7.195-5.834 13.03-13.03 13.03s-13.03-5.835-13.03-13.03v-2.95zm38.59-9.743c7.966 0 14.424 6.457 14.424 14.423v4.931h-6V47.72a8.423 8.423 0 0 0-8.423-8.423h-6.893v-6.708A5.59 5.59 0 0 0 53.063 27H26.905a5.589 5.589 0 0 0-5.59 5.59v6.707h-6.892A8.423 8.423 0 0 0 6 47.72v4.931H0V47.72c0-7.966 6.457-14.423 14.423-14.423h.893v-.708c0-6.4 5.188-11.589 11.589-11.589h26.158c6.4 0 11.59 5.189 11.59 11.59v.707h.892zM19.468 50.304a2.384 2.384 0 1 0-4.768 0 2.384 2.384 0 0 0 4.768 0zm6 0a8.384 8.384 0 1 1-16.768 0 8.384 8.384 0 0 1 16.768 0zm29.034 0a8.384 8.384 0 1 1 16.768 0 8.384 8.384 0 0 1-16.768 0zm6 0a2.384 2.384 0 1 0 4.768 0 2.384 2.384 0 0 0-4.768 0z"/>
</svg>
